<svg width="206" height="48" fill="none" xmlns="http://www.w3.org/2000/svg"><path d="M38.7 41v6.902h.997v-3.275h2.581c1.38 0 1.79.645 2.034 1.369.215.625.274 1.34.685 1.906h1.056c-.352-.528-.49-1.017-.607-1.505-.224-.949-.469-1.985-1.72-2.22.89-.274 1.153-.987 1.388-1.692.156-.46.313-1.007.645-1.486h-1.056c-.244.43-.352.87-.479 1.252-.274.83-.616 1.584-2.073 1.584h-2.454v-2.836H38.7zm21.384 6.902L56.545 41h-1.046l-3.579 6.903h1.105l.841-1.701h4.243l.841 1.701h1.134zM57.69 45.41h-3.412l1.72-3.422 1.692 3.422zm13.485-4.605h-.998v.84c-3.54 0-4.067 1.399-4.067 2.729 0 1.408.518 2.698 4.067 2.698v.93h.998v-.93c3.52 0 4.067-1.378 4.067-2.698 0-1.33-.528-2.728-4.067-2.728v-.841zm-.969 5.446c-2.512 0-3.07-.753-3.07-1.897 0-1.124.558-1.887 3.07-1.887v3.784zm.94-3.784c2.522 0 3.07.763 3.07 1.887 0 1.144-.558 1.897-3.07 1.897v-3.784zm17.58 5.436v-.85h-5.641v-2.327h5.25v-.822h-5.25V41.85h5.387V41h-6.365v6.902h6.62zm29.199 0V41h-5.906v1.594c0 3.637-.215 4.468-1.251 4.468h-.245v.841h.245c1.926 0 2.19-1.232 2.19-5.192v-.87h3.97v6.062h.997zm14.55 0L128.935 41h-1.047l-3.578 6.903h1.105l.841-1.701h4.243l.841 1.701h1.134zm-2.395-2.493h-3.413l1.721-3.422 1.692 3.422zm8.82 2.493h4.429c.929 0 2.054-.01 2.64-.9.284-.43.294-.84.294-1.026 0-1.017-.626-1.555-1.311-1.77.098-.058.969-.254.969-1.417 0-1.594-1.516-1.79-2.484-1.79H138.9v6.903zm.988-3.989v-2.122h3.432c.381 0 .782 0 1.124.215.42.264.46.675.46.851 0 .313-.118.528-.186.626-.293.42-.773.43-1.222.43h-3.608zm0 3.188v-2.396h3.735c.528 0 1.085.03 1.417.508.196.284.196.548.196.695 0 .342-.127.586-.225.704-.342.44-.88.489-1.388.489h-3.735zM153.225 41v6.903h.998v-3.275h2.581c1.379 0 1.789.645 2.034 1.369.215.625.274 1.34.684 1.906h1.056c-.352-.528-.489-1.017-.606-1.505-.225-.949-.469-1.985-1.721-2.22.89-.274 1.154-.987 1.389-1.692.156-.46.313-1.007.645-1.486h-1.056c-.245.43-.352.87-.479 1.252-.274.83-.616 1.584-2.073 1.584h-2.454V41h-.998zm21.385 6.903L171.07 41h-1.046l-3.579 6.903h1.105l.841-1.701h4.243l.841 1.701h1.134zm-2.395-2.493h-3.413l1.721-3.422 1.692 3.422zm-70.962-.04v-.8h-3.08v.8h3.08zM19.598 30.032c-1.836 0-1.554 1.177-1.554 1.789 0 1.223 0 1.6 1.318 1.6H24.4c-.094.047-.188 0-.236 0 .142 0 .613-.047 1.036-.047.989 0 .989-1.177.989-2.495 0-.518-.33-.8-.895-.847h-1.13v-2.864c0-1.412 0-2.722.095-4.276V11.234c0-1.969.14-4.087.14-6.3v-.886l.613-.047c1.93 0 1.93-.424 1.93-2.306 0-.471-.33-.753-.895-.8h-4.048c-.47 0-.659-.095-1.082.894L13.43 19.323C11.69 15.181 7.736 6.064 5.994 1.789 5.617.894 5.382.894 4.958.894H1.57C-.267.894.016 2.118.016 2.59c0 1.083.047 1.46 1.318 1.46h1.035c.047.329.094.658.094.886l.095 2.824c0 .706.047 1.412.094 2.063 0 .471-.047.942-.047 1.412.047 5.877.188 12.835.235 18.798h-.518c-1.6.047-1.553.753-1.553 1.836 0 1.27 0 1.647 1.318 1.647h.33l2.965-.094h1.6c1.46 0 1.93-.188 1.93-1.742v-.894c-.047-.424-.376-.706-.894-.753H6.512c-.047-6.81-.189-12.545-.236-19.598l6.308 15.04c.094.235.33.612.847.612.565 0 .942-.283 1.036-.518 2.07-4.888 4.424-11.038 6.166-15.275-.094 7.288-.424 12.317-.424 19.739h-.611zm27.725-17.275v-.236C46.946 6.355 45.252 0 39.133 0c-6.732 0-9.368 6.637-9.368 17.323 0 4.66.33 17.18 8.614 17.18 2.118 0 4.096-.658 5.084-1.835 2.071-1.93 4.048-5.696 4.048-13.698 0-2.542-.141-4.754-.188-6.213zm-3.719.329c.047 1.177.141 2.871.141 4.754 0 2.825-.188 6.402-1.176 9.038-.66 1.695-1.836 4.095-3.813 4.095-4.33 0-4.849-6.401-5.084-9.179-.094-1.412-.188-3.107-.188-4.707 0-2.918.235-4.613.423-6.684.283-3.06 2.448-6.449 4.755-6.449 4.095 0 4.942 6.496 4.942 9.132zM51.936.612c-1.836 0-1.553 1.177-1.553 1.789 0 1.224 0 1.6 1.317 1.6h.989v26.125h-.659c-1.836 0-1.553 1.177-1.553 1.789 0 1.224 0 1.6 1.318 1.6h.33l1.93-.094c.14.094.329.094.47.094.188-.047.33-.047.518-.094h1.647c1.93 0 1.93-.565 1.93-2.542 0-.424-.33-.706-.894-.753h-1.412v-5.5c1.506 0 4.424-.274 6.213-1.498 2.777-1.883 4.378-5.688 4.378-10.387 0-7.006-4.472-11-9.744-11.847l-1.6-.188c-.095-.047-.189-.094-.283-.094h-3.342zm4.095 3.2c1.648 0 7.108 1.225 7.108 10.121 0 2.777-1.13 8.003-6.637 8.003h-.518c0-5.79.047-11.11.047-16.9 0-.376-.094-.658-.094-.94 0-.095.047-.189.094-.283zM70.86.895c-1.836 0-1.554 1.224-1.554 1.695 0 1.083.048 1.46 1.319 1.46h.94v12.614c0 .424-.046.989-.046 1.507 0 1.224.047 2.447.047 3.813v.847l-.094 4.425c0 .753-.047 1.506-.047 2.259v.518h-.565c-1.836 0-1.554 1.177-1.554 1.789 0 1.223 0 1.6 1.319 1.6h5.036c-.141.047-.235.047-.235 0h.47c.66-.047 1.413-.047 2.213-.047.989 0 2.024.047 3.107.047.517 0 1.035-.047 1.506-.047.188 0 .376.047.612.047.518 0 .941 0 1.224-.047h.094c.377 0 .8-.235.8-.902V28.18c0-1.843-1.177-1.56-1.93-1.56-1.365 0-1.694 0-1.694 1.317v2.08l-4.755.187c-.14-.094-.33-.094-.517-.14h-1.46c0-1.413.094-3.35.094-4.386V21.33c0-.902.048-1.796.048-2.738l4.424-.14c.424 0 .895.046 1.318.046 1.271 0 1.93-.33 1.93-1.694 0-1.13-.235-1.271-1.506-1.271H75.33c-.142 0-.142-1.742-.142-2.213l.095-9.179c1.6.047 3.813.047 5.79.047h.282V5.93v-.188c0 .141.094.659.094.988 0 .989 1.412.989 2.73.989.47 0 .753-.33.8-.895v-3.53c.095-.188.095-.424.095-.612 0-1.224 0-1.741-1.46-1.741-.612 0-2.024.046-3.153.046-.612 0-1.13-.046-1.46-.046h-2.165c-.094 0-.188-.048-.282-.048h-5.696zm49.158-.282c-1.836 0-1.554 1.177-1.554 1.789 0 1.224 0 1.6 1.318 1.6h.894v26.172h-.706c-1.835 0-1.553 1.177-1.553 1.789 0 1.224 0 1.6 1.318 1.6h.33l4.566-.047c1.929 0 1.929-.565 1.929-2.542 0-.47-.329-.753-.894-.8H124.3v-10.12h1.13c2.212.423 5.178 2.494 5.695 7.39.471 4.613 2.213 6.731 6.355 6.731.942 0 1.318-.235 1.318-.753v-1.13c0-.423-.235-.517-.8-.517h-.282c-3.201 0-3.154-3.72-3.154-5.79 0-3.766-2.636-6.26-4.943-7.014 2.73-.518 5.366-3.06 5.366-8.096 0-6.308-4.566-10.262-11.25-10.262h-3.718zm3.953 3.2c.142-.329.33-.282.518-.282 1.977 0 6.637 2.072 6.637 7.202 0 2.213-.329 6.637-6.495 6.637h-.66V3.813zM140.4 1.037c-1.836 0-1.554 1.176-1.554 1.788 0 1.224 0 1.6 1.318 1.6h.847v26.032h-.564c-1.836 0-1.554 1.176-1.554 1.788 0 1.224 0 1.6 1.318 1.6h.33l3.201.048c4.989.094 11.438-3.578 11.438-11.345 0-6.684-4.142-10.167-10.403-10.497V4.378h.283c1.93 0 1.93-.565 1.93-2.542 0-.47-.33-.753-.895-.8H140.4zm18.028 28.996c-1.836 0-1.553 1.177-1.553 1.789 0 1.223 0 1.6 1.318 1.6h.329l4.566-.047c1.93 0 1.93-.565 1.93-2.542 0-.47-.329-.753-.894-.8h-1.506v-.753c0-1.271.047-2.448.047-3.766 0-2.636-.047-5.743-.047-10.78V4.236h.376c1.93 0 1.93-.564 1.93-2.541 0-.471-.329-.753-.894-.8h-5.696c-1.836 0-1.553 1.176-1.553 1.788 0 1.224 0 1.6 1.318 1.6h.706c0 .283-.047.565-.047.848 0 .141.047.235.047.376l.094 2.024c.424 9.274.235 11.156.235 18.735v3.766h-.706zm-13.98-15.299h.376c6.167 0 6.826 5.932 6.826 8.003 0 5.13-3.954 7.767-6.496 7.767-.141 0-.283 0-.424-.047h-.188c-.141-5.226-.047-10.497-.094-15.723zm24.195-13.697c-1.836 0-1.554 1.223-1.554 1.694 0 1.083.047 1.46 1.318 1.46h1.224c0 8.66.047 17.416.047 26.03H168.5c-1.835 0-1.553 1.177-1.553 1.789 0 1.224 0 1.6 1.318 1.6h.33l1.694-.047c7.108-.188 13.463-2.4 13.463-10.78 0-7.625-5.225-10.402-10.591-10.543.047-2.401.141-4.896.141-7.438v-.659c.047 0 .376 0 .659-.047h.518c1.082-.047 2.212-.047 3.342-.047h.659v1.883c0-.141 0-.282.047-.282v.094c0 1.93.706 1.93 2.777 1.93.471 0 .753-.33.8-.895.094-3.718.094-4.19.094-4.801 0-.377 0-.847-.47-.847l-13.086-.094zm4.189 13.886h.377c6.26 0 6.919 5.837 6.919 7.908 0 5.554-4.236 7.014-7.108 7.014l-.188-14.922zm14.875 15.58c-1.836 0-1.554 1.225-1.554 1.695 0 1.083.048 1.46 1.319 1.46h.329l4.566-.095c.988 0 .988-.941.988-2.26 0-.47-.329-.752-.894-.8h-.894c.094-.659.188-1.553.659-3.483v.047c.094-.517.188-1.412.423-2.4l5.367.047c.282 0 .517 0 1.129.047l.659 2.26c.283 1.506.424 2.4.565 3.012h-.8c-1.836 0-1.553 1.177-1.553 1.789 0 1.223 0 1.6 1.318 1.6h.329l5.037-.094c.988 0 .988-1.177.988-2.495 0-.47-.329-.753-.894-.8h-.847c-.189-.942-.706-3.248-2.26-9.98l-.094-.188c0-.047-.047-.188-.047-.235l-3.53-17.322c-.283-1.413-1.93-1.413-2.401-1.413-.612 0-1.318.189-1.648 1.413L190.53 19.44a2.3 2.3 0 01-.188.518l-1.506 6.072c0 .047-.095.33-.095.423l-.329 1.413c-.141.988-.33 2.024-.471 2.636h-.235zm8.19-22.217c0-.095.047-.236.094-.377 0 .235.048.33.095.377l2.306 12.991c-1.741 0-3.154-.047-4.801-.047l2.306-12.944zM107.582 31.2c0-2.006-.092-2.809-.092-4.66l.061-8.488c0-.679 0-1.358.031-2.068l.031-1.666h.772c.864 0 .864-.247.864-1.05 0-.401.185-1.173-1.019-1.173h-2.222c-.278 0-.432 0-.679.587-1.574 3.827-4.197 11.142-5.987 14.506 0-1.914-.124-6.142-.124-8.025l.031-5h.71c.864 0 .864-.247.864-1.05 0-.37.185-1.141-1.018-1.141H96.07c-.37.03-.586.216-.586.525 0 1.296 0 1.666 1.265 1.666h.154v2.865c0 .247.031.494.031.741 0 .489-.03.983-.03 1.445.03.37.03.741.03 1.112l.062.951v.401c0 .649.031 1.266.031 1.914v.37l-.093 3.545c0 1.383-.03 2.34-.03 3.353 0 .432.03.68.03 1.42v.432c0 .68.34.71.988.71.401 0 1.05-.154 1.512-1.234 1.636-3.853 3.55-7.768 5.587-12.88-.031 1.635-.031 3.08-.031 4.5V31.2h-.895c-.371.03-.587.216-.587.524 0 .865 0 1.636.648 1.636.247 0 .556.062.649.062h-.124 3.302c.865 0 .865-.247.865-1.05 0-.4.185-1.172-1.019-1.172h-.247z" fill="#00579E"/></svg>