<svg width="144" height="24" fill="none" xmlns="http://www.w3.org/2000/svg"><path d="M13.632 20.89c-1.277 0-1.08.818-1.08 1.244 0 .851 0 1.113.916 1.113h3.503c-.065.033-.13 0-.163 0 .098 0 .425-.033.72-.033.688 0 .688-.818.688-1.735 0-.36-.23-.557-.623-.59h-.785v-1.991c0-.983 0-1.894.065-2.974v-8.11c0-1.37.098-2.843.098-4.382v-.616l.426-.033c1.342 0 1.342-.295 1.342-1.604 0-.328-.229-.524-.622-.557h-2.816c-.327 0-.458-.065-.753.622L9.342 13.441C8.131 10.559 5.381 4.218 4.17 1.244 3.907.622 3.744.622 3.45.622H1.09C-.187.622.01 1.473.01 1.801c0 .753.033 1.015.917 1.015h.72c.033.229.066.458.066.616l.065 1.965c0 .491.033.982.065 1.435 0 .328-.032.655-.032.982.032 4.088.13 8.928.163 13.076h-.36c-1.113.032-1.08.523-1.08 1.276 0 .885 0 1.146.916 1.146h.23l2.063-.065h1.113c1.015 0 1.342-.131 1.342-1.212v-.622c-.033-.294-.262-.49-.622-.523H4.53c-.032-4.737-.13-8.726-.163-13.632l4.387 10.46c.066.165.23.427.59.427.392 0 .654-.197.72-.36 1.44-3.4 3.077-7.678 4.289-10.625-.066 5.07-.295 8.567-.295 13.73h-.425zM32.917 8.873V8.71C32.655 4.42 31.477 0 27.22 0c-4.682 0-6.516 4.617-6.516 12.05 0 3.24.23 11.95 5.992 11.95 1.473 0 2.848-.458 3.536-1.277 1.44-1.342 2.816-3.962 2.816-9.528 0-1.768-.099-3.307-.131-4.322zm-2.587.23c.033.818.098 1.997.098 3.306 0 1.965-.13 4.453-.818 6.287-.459 1.178-1.277 2.848-2.652 2.848-3.013 0-3.373-4.453-3.536-6.384a50.611 50.611 0 01-.131-3.275c0-2.03.163-3.208.294-4.649.197-2.128 1.703-4.486 3.307-4.486 2.849 0 3.438 4.519 3.438 6.352zM36.126.425c-1.277 0-1.081.818-1.081 1.244 0 .851 0 1.113.917 1.113h.687v18.172h-.458c-1.277 0-1.08.819-1.08 1.244 0 .852 0 1.113.916 1.113h.23l1.342-.065c.098.066.23.066.327.066.131-.033.23-.033.36-.066h1.146c1.343 0 1.343-.393 1.343-1.768 0-.295-.23-.491-.622-.524h-.982V17.13c1.047 0 3.077-.191 4.322-1.043 1.931-1.31 3.045-3.956 3.045-7.225 0-4.873-3.11-7.65-6.778-8.24l-1.113-.13a.464.464 0 00-.197-.066h-2.325zm2.848 2.226c1.146 0 4.944.851 4.944 7.04 0 1.931-.786 5.566-4.617 5.566h-.36c0-4.027.033-7.727.033-11.755 0-.262-.065-.458-.065-.654 0-.066.032-.131.065-.197zM49.288.622c-1.277 0-1.08.851-1.08 1.179 0 .753.032 1.015.916 1.015h.655v8.775c0 .294-.033.687-.033 1.048 0 .85.033 1.702.033 2.652v.589l-.066 3.078c0 .524-.032 1.048-.032 1.571v.36h-.393c-1.277 0-1.08.82-1.08 1.245 0 .851 0 1.113.916 1.113h3.504c-.099.033-.164.033-.164 0h.327c.459-.033.983-.033 1.54-.033.687 0 1.407.033 2.16.033.36 0 .72-.033 1.048-.033.13 0 .262.033.426.033.36 0 .654 0 .85-.033h.066c.262 0 .557-.163.557-.627v-2.985c0-1.283-.819-1.086-1.342-1.086-.95 0-1.18 0-1.18.917v1.446l-3.306.13c-.098-.065-.23-.065-.36-.098h-1.015c0-.982.065-2.33.065-3.05v-3.023c0-.628.033-1.25.033-1.905l3.078-.098c.294 0 .622.033.916.033.885 0 1.343-.23 1.343-1.179 0-.786-.164-.884-1.048-.884h-4.224c-.098 0-.098-1.212-.098-1.539l.066-6.385c1.113.033 2.652.033 4.027.033h.197v1.211-.13c0 .098.065.458.065.687 0 .688.982.688 1.899.688.327 0 .524-.23.557-.622V2.292c.065-.131.065-.295.065-.426 0-.851 0-1.211-1.015-1.211-.426 0-1.408.033-2.194.033-.425 0-.785-.033-1.015-.033h-1.506c-.065 0-.13-.033-.196-.033h-3.962zM83.48.426c-1.277 0-1.08.818-1.08 1.244 0 .851 0 1.113.916 1.113h.622v18.205h-.49c-1.278 0-1.081.818-1.081 1.244 0 .851 0 1.113.916 1.113h.23l3.176-.032c1.342 0 1.342-.393 1.342-1.769 0-.327-.23-.524-.622-.556h-.95v-7.04h.786c1.54.295 3.602 1.736 3.962 5.14.328 3.21 1.539 4.683 4.42 4.683.655 0 .917-.164.917-.524v-.786c0-.294-.164-.36-.557-.36h-.196c-2.227 0-2.194-2.587-2.194-4.027 0-2.62-1.833-4.355-3.438-4.879 1.9-.36 3.733-2.128 3.733-5.632 0-4.387-3.176-7.137-7.825-7.137H83.48zm2.75 2.226c.099-.23.23-.196.36-.196 1.376 0 4.617 1.44 4.617 5.01 0 1.538-.23 4.616-4.518 4.616h-.459v-9.43zM97.658.72c-1.277 0-1.08.819-1.08 1.244 0 .852 0 1.114.916 1.114h.59v18.106h-.393c-1.277 0-1.08.819-1.08 1.244 0 .852 0 1.114.916 1.114h.23l2.226.032c3.471.066 7.956-2.488 7.956-7.89 0-4.65-2.881-7.073-7.236-7.302V3.045h.197c1.342 0 1.342-.393 1.342-1.768 0-.327-.229-.524-.622-.557h-3.962zM110.2 20.89c-1.277 0-1.081.818-1.081 1.244 0 .851 0 1.113.917 1.113h.229l3.176-.033c1.342 0 1.342-.393 1.342-1.768 0-.327-.229-.524-.622-.556h-1.047v-.524c0-.884.032-1.703.032-2.62 0-1.833-.032-3.994-.032-7.498V2.947h.261c1.343 0 1.343-.393 1.343-1.768 0-.328-.229-.524-.622-.557h-3.962c-1.277 0-1.08.819-1.08 1.244 0 .852 0 1.114.916 1.114h.491c0 .196-.032.392-.032.589 0 .098.032.164.032.262l.066 1.408c.295 6.45.164 7.76.164 13.031v2.62h-.491zm-9.725-10.642h.262c4.289 0 4.748 4.126 4.748 5.567 0 3.568-2.751 5.402-4.519 5.402-.098 0-.196 0-.294-.033h-.131c-.099-3.634-.033-7.301-.066-10.936zM117.304.72c-1.277 0-1.081.852-1.081 1.179 0 .753.033 1.015.917 1.015h.851c0 6.025.033 12.115.033 18.106h-.819c-1.277 0-1.08.819-1.08 1.245 0 .851 0 1.113.917 1.113h.229l1.179-.033c4.944-.13 9.364-1.67 9.364-7.498 0-5.304-3.634-7.236-7.367-7.334.033-1.67.098-3.405.098-5.173v-.46c.033 0 .262 0 .458-.032h.361c.753-.033 1.538-.033 2.324-.033h.459v1.31c0-.099 0-.197.033-.197v.066c0 1.342.491 1.342 1.931 1.342.328 0 .524-.23.557-.622.065-2.587.065-2.914.065-3.34 0-.262 0-.59-.327-.59L117.304.72zm2.914 9.66h.262c4.354 0 4.813 4.06 4.813 5.5 0 3.864-2.947 4.879-4.944 4.879l-.131-10.38zm10.346 10.837c-1.277 0-1.08.851-1.08 1.179 0 .753.032 1.015.916 1.015h.23l3.176-.066c.687 0 .687-.655.687-1.572 0-.327-.229-.523-.622-.556h-.622c.066-.458.131-1.08.458-2.423v.033c.066-.36.131-.983.295-1.67l3.733.033c.196 0 .36 0 .786.032l.458 1.572c.196 1.048.295 1.67.393 2.096h-.557c-1.277 0-1.08.818-1.08 1.244 0 .851 0 1.113.917 1.113h.229l3.503-.066c.688 0 .688-.818.688-1.735 0-.327-.229-.524-.622-.556h-.59c-.131-.655-.491-2.26-1.571-6.942l-.066-.13c0-.034-.033-.132-.033-.165l-2.455-12.049c-.197-.982-1.343-.982-1.67-.982-.426 0-.917.131-1.146.982l-2.39 11.919a1.65 1.65 0 01-.131.36l-1.048 4.223c0 .033-.065.23-.065.295l-.23.982a24.886 24.886 0 01-.327 1.834h-.164zm5.697-15.454c0-.066.033-.164.066-.262 0 .163.033.229.065.262l1.605 9.037c-1.212 0-2.194-.033-3.34-.033l1.604-9.004zM74.831 21.7c0-1.395-.064-1.953-.064-3.241l.043-5.904c0-.472 0-.945.021-1.438l.022-1.16h.536c.602 0 .602-.171.602-.73 0-.279.128-.815-.709-.815h-1.546c-.193 0-.3 0-.472.407-1.095 2.662-2.92 7.75-4.165 10.09 0-1.33-.086-4.272-.086-5.581l.022-3.478h.494c.6 0 .6-.172.6-.73 0-.258.13-.794-.708-.794h-2.597c-.258.021-.408.15-.408.365 0 .901 0 1.159.88 1.159h.107v1.993c0 .172.022.343.022.515 0 .34-.022.684-.022 1.005.022.258.022.516.022.773l.043.662v.28c0 .45.021.88.021 1.33v.258l-.064 2.465c0 .963-.022 1.628-.022 2.333 0 .3.022.472.022.988v.3c0 .473.236.494.687.494.279 0 .73-.107 1.052-.859 1.138-2.68 2.468-5.403 3.885-8.96-.021 1.139-.021 2.144-.021 3.132V21.7h-.623c-.257.022-.408.15-.408.365 0 .601 0 1.138.451 1.138.172 0 .387.043.451.043h-.086 2.297c.601 0 .601-.172.601-.73 0-.279.13-.816-.708-.816h-.172z" fill="#00579E"/></svg>